<svg width="60" height="80" viewBox="0 0 60 80" fill="none" xmlns="http://www.w3.org/2000/svg">
<mask id="mask0_354_197" style="mask-type:alpha" maskUnits="userSpaceOnUse" x="2" y="8" width="52" height="70">
<path d="M13.489 21.6375C14.2898 18.8735 16.2425 16.5885 18.8478 15.3666L31.4986 9.43319C36.0462 7.30032 41.4703 8.87181 44.1734 13.1054L51.693 24.8827C53.2416 27.3081 53.6703 30.283 52.8695 33.047L42.1633 70C40.6264 75.3047 35.0802 78.3591 29.7755 76.8222L9.60502 70.9783C4.30033 69.4414 1.24593 63.8952 2.78283 58.5905L13.489 21.6375Z" fill="#00FFFD"/>
</mask>
<g mask="url(#mask0_354_197)">
<path d="M18.0692 29.8298C18.0692 26.9522 19.3088 24.214 21.4712 22.3154L31.9712 13.0959C35.7456 9.78174 41.3928 9.78174 45.1672 13.0959L55.6672 22.3154C57.8296 24.214 59.0692 26.9522 59.0692 29.8298V68.3025C59.0692 73.8253 54.5921 78.3025 49.0692 78.3025H28.0692C22.5464 78.3025 18.0692 73.8253 18.0692 68.3025V29.8298Z" fill="#00FFFD"/>
<path d="M18.0692 29.8298C18.0692 26.9522 19.3088 24.214 21.4712 22.3154L31.9712 13.0959C35.7456 9.78174 41.3928 9.78174 45.1672 13.0959L55.6672 22.3154C57.8296 24.214 59.0692 26.9522 59.0692 29.8298V68.3025C59.0692 73.8253 54.5921 78.3025 49.0692 78.3025H28.0692C22.5464 78.3025 18.0692 73.8253 18.0692 68.3025V29.8298Z" fill="url(#paint0_linear_354_197)" fill-opacity="0.83"/>
</g>
<path d="M13.489 21.6375C14.2898 18.8735 16.2425 16.5885 18.8478 15.3666L31.4986 9.43319C36.0462 7.30032 41.4703 8.87181 44.1734 13.1054L51.693 24.8827C53.2416 27.3081 53.6703 30.283 52.8695 33.047L42.1633 70C40.6264 75.3047 35.0802 78.3591 29.7755 76.8222L9.60502 70.9783C4.30033 69.4414 1.24593 63.8952 2.78283 58.5905L13.489 21.6375Z" fill="#00FFFD"/>
<mask id="mask1_354_197" style="mask-type:alpha" maskUnits="userSpaceOnUse" x="2" y="8" width="52" height="70">
<path d="M13.489 21.6375C14.2898 18.8735 16.2425 16.5885 18.8478 15.3666L31.4986 9.43319C36.0462 7.30032 41.4703 8.87181 44.1734 13.1054L51.693 24.8827C53.2416 27.3081 53.6703 30.283 52.8695 33.047L42.1633 70C40.6264 75.3047 35.0802 78.3591 29.7755 76.8222L9.60502 70.9783C4.30033 69.4414 1.24593 63.8952 2.78283 58.5905L13.489 21.6375Z" fill="#00FFFD"/>
</mask>
<g mask="url(#mask1_354_197)">
<g filter="url(#filter0_d_354_197)">
<path d="M18.0692 29.8298C18.0692 26.9522 19.3088 24.214 21.4712 22.3154L31.9712 13.0959C35.7456 9.78174 41.3928 9.78174 45.1672 13.0959L55.6672 22.3154C57.8296 24.214 59.0692 26.9522 59.0692 29.8298V68.3025C59.0692 73.8253 54.5921 78.3025 49.0692 78.3025H28.0692C22.5464 78.3025 18.0692 73.8253 18.0692 68.3025V29.8298Z" fill="#00FFFD"/>
</g>
</g>
<path d="M18.0692 29.8298C18.0692 26.9522 19.3088 24.214 21.4712 22.3154L31.9712 13.0959C35.7456 9.78174 41.3928 9.78174 45.1672 13.0959L55.6672 22.3154C57.8296 24.214 59.0692 26.9522 59.0692 29.8298V68.3025C59.0692 73.8253 54.5921 78.3025 49.0692 78.3025H28.0692C22.5464 78.3025 18.0692 73.8253 18.0692 68.3025V29.8298Z" fill="#00FFFD"/>
<path d="M18.0692 29.8298C18.0692 26.9522 19.3088 24.214 21.4712 22.3154L31.9712 13.0959C35.7456 9.78174 41.3928 9.78174 45.1672 13.0959L55.6672 22.3154C57.8296 24.214 59.0692 26.9522 59.0692 29.8298V68.3025C59.0692 73.8253 54.5921 78.3025 49.0692 78.3025H28.0692C22.5464 78.3025 18.0692 73.8253 18.0692 68.3025V29.8298Z" fill="url(#paint1_linear_354_197)" fill-opacity="0.83"/>
<circle cx="31.75" cy="42.25" r="5.25" stroke="black" stroke-width="3" stroke-linecap="round" stroke-linejoin="round"/>
<circle cx="46.75" cy="56.25" r="5.25" stroke="black" stroke-width="3" stroke-linecap="round" stroke-linejoin="round"/>
<path d="M29.5 59L49 39.5" stroke="black" stroke-width="3" stroke-linecap="round" stroke-linejoin="round"/>
<rect x="36" width="4" height="22" rx="2" fill="#00FFFD"/>
<defs>
<filter id="filter0_d_354_197" x="1.02921" y="2.61023" width="71.88" height="98.5723" filterUnits="userSpaceOnUse" color-interpolation-filters="sRGB">
<feFlood flood-opacity="0" result="BackgroundImageFix"/>
<feColorMatrix in="SourceAlpha" type="matrix" values="0 0 0 0 0 0 0 0 0 0 0 0 0 0 0 0 0 0 127 0" result="hardAlpha"/>
<feOffset dx="-1.6" dy="7.44"/>
<feGaussianBlur stdDeviation="7.72"/>
<feComposite in2="hardAlpha" operator="out"/>
<feColorMatrix type="matrix" values="0 0 0 0 0.14 0 0 0 0 1 0 0 0 0 0 0 0 0 0.68 0"/>
<feBlend mode="normal" in2="BackgroundImageFix" result="effect1_dropShadow_354_197"/>
<feBlend mode="normal" in="SourceGraphic" in2="effect1_dropShadow_354_197" result="shape"/>
</filter>
<linearGradient id="paint0_linear_354_197" x1="25.0754" y1="30.8369" x2="49.257" y2="52.6372" gradientUnits="userSpaceOnUse">
<stop stop-color="white"/>
<stop offset="1" stop-color="white" stop-opacity="0.56"/>
</linearGradient>
<linearGradient id="paint1_linear_354_197" x1="25.0754" y1="30.8369" x2="49.257" y2="52.6372" gradientUnits="userSpaceOnUse">
<stop stop-color="white"/>
<stop offset="1" stop-color="white" stop-opacity="0.56"/>
</linearGradient>
</defs>
</svg>
