<svg width="52" height="101" viewBox="0 0 52 101" fill="none" xmlns="http://www.w3.org/2000/svg">
<path fill-rule="evenodd" clip-rule="evenodd" d="M4.85146 33.7346L7.21162 12.2833H24.2572L24.9128 6.02104H7.80428L8.46513 0H51.1579L50.4971 6.02104H31.6L30.9389 12.2833H43.5684C47.0929 12.2833 49.5161 14.3393 49.1489 17.9372L46.495 35.4969C46.4306 36.0816 46.3553 36.6329 46.2696 37.1524C45.9666 39.4193 45.2844 44.5796 45.0897 46.5267L41.712 80.597H23.9426L23.502 84.7089C22.7124 92.3898 24.7299 94.0454 29.7602 94.1157V100.799C29.6812 100.799 29.6022 100.8 29.5231 100.8C20.2712 100.8 15.5719 97.1916 16.8202 85.1495L17.2607 80.597H6.46691H5.65917H0L4.5578 38.9637H21.463L22.1586 32.268L18.0157 35.3395C16.5397 32.4577 14.5926 29.5759 12.1746 26.8229L11.4075 33.7346H4.85146ZM33.4357 35.7067L28.5946 37.0622L30.2781 18.3778H42.6873L40.5364 32.3727C38.8656 29.2797 36.8372 26.3293 34.2431 23.5912L30.2046 26.822C32.7746 29.6856 34.8306 32.6961 36.3725 35.7067L40.4936 32.6514L40.3271 33.7346C39.8866 38.0668 39.3361 39.3361 37.3693 39.3361C35.9742 39.3361 34.2434 39.0109 33.4357 35.7067ZM23.6017 18.3778L22.1849 32.0154C20.513 28.9187 18.4831 25.9651 15.8863 23.224L12.2513 26.132L13.112 18.3778H23.6017ZM10.1383 45.6456L9.03686 56.366H19.7573L20.8587 45.6456H10.1383ZM38.4812 45.6456H27.4671L26.3657 56.366H37.4532L38.4812 45.6456ZM19.0964 62.9744H8.30259L7.12775 73.9885H17.9216L19.0964 62.9744ZM35.7644 73.9885L36.7924 62.9744H25.7049L24.6035 73.9885H35.7644Z" fill="#00FFFD"/>
<path fill-rule="evenodd" clip-rule="evenodd" d="M29.7603 94.1158L29.7603 100.799C40.3201 100.666 50.3062 91.6779 51.3994 80.5997H44.5811C43.6266 89.411 35.5444 94.1182 30.1108 94.1182C29.9923 94.1182 29.8755 94.1174 29.7603 94.1158Z" fill="url(#paint0_linear_309_94)"/>
<defs>
<linearGradient id="paint0_linear_309_94" x1="29.7603" y1="94.56" x2="44.6402" y2="80.64" gradientUnits="userSpaceOnUse">
<stop stop-color="#00FFFD"/>
<stop offset="1" stop-color="#00FFFD" stop-opacity="0"/>
</linearGradient>
</defs>
</svg>
