<svg width="72" height="72" viewBox="0 0 72 72" fill="none" xmlns="http://www.w3.org/2000/svg">
<circle cx="36" cy="36" r="36" fill="white"/>
<path d="M23.6079 26.2179C24.8231 26.2179 25.8729 25.7782 26.7625 24.8834C27.652 23.9939 28.0969 22.9441 28.0969 21.7289C28.0969 20.5185 27.652 19.4635 26.7625 18.574C25.8729 17.6949 24.8231 17.25 23.6079 17.25C22.3923 17.25 21.3426 17.6949 20.4531 18.5792C19.5635 19.4687 19.1187 20.5185 19.1187 21.734C19.1187 23.0425 19.5376 24.1183 20.3805 24.956C21.2289 25.7989 22.2994 26.2179 23.6079 26.2179ZM27.3935 54.2486V29.5846H19.8275V54.2539H27.3936V54.2487L27.3935 54.2486ZM56.1225 54.2486V40.6574C56.1225 36.9233 55.4915 34.0479 54.2296 32.036C52.9729 30.0294 50.5628 29.021 47.0151 29.021C43.462 29.021 41.0366 30.3293 39.7281 32.9463H39.5885V29.5845H32.2963V54.2539H39.8625V42.0589C39.8625 37.8542 41.4038 35.7494 44.4861 35.7494C45.7014 35.7494 46.6116 36.1475 47.2167 36.9389C47.8217 37.7354 48.1733 38.4799 48.2666 39.1835C48.3596 39.8868 48.4062 40.8899 48.4062 42.1985V54.2539H56.1225V54.2486Z" fill="#285ADA"/>
</svg>
