<svg width="87" height="70" viewBox="0 0 87 70" fill="none" xmlns="http://www.w3.org/2000/svg">
<path d="M55.1549 28.1224L82.0014 44.9064C84.081 46.2065 83.8066 49.3171 81.5315 50.2331L34.2679 69.2619C33.1555 69.7097 31.8833 69.4521 31.0327 68.6068L4.03969 41.7804C2.32744 40.0788 3.22394 37.1546 5.59573 36.7051L53.0059 27.7186C53.7475 27.5781 54.5149 27.7222 55.1549 28.1224Z" fill="#00FFFD"/>
<mask id="mask0_354_166" style="mask-type:alpha" maskUnits="userSpaceOnUse" x="0" y="27" width="87" height="43">
<path d="M54.1594 27.5L87 48.0314L32.4345 70L0 37.7657L54.1594 27.5Z" fill="#00FFFD"/>
</mask>
<g mask="url(#mask0_354_166)">
<g filter="url(#filter0_d_354_166)">
<path d="M61 20.5C61 24.9027 59.6121 28.9812 57.25 32.3219C53.5377 37.5721 40.5 55 40.5 55C40.5 55 27.4623 37.5721 23.75 32.3219C21.3879 28.9812 20 24.9027 20 20.5C20 9.17816 29.1782 0 40.5 0C51.8218 0 61 9.17816 61 20.5Z" fill="#00FFFD"/>
</g>
</g>
<path d="M61 20.5C61 24.9027 59.6121 28.9812 57.25 32.3219C53.5377 37.5721 40.5 55 40.5 55C40.5 55 27.4623 37.5721 23.75 32.3219C21.3879 28.9812 20 24.9027 20 20.5C20 9.17816 29.1782 0 40.5 0C51.8218 0 61 9.17816 61 20.5Z" fill="#00FFFD"/>
<path d="M61 20.5C61 24.9027 59.6121 28.9812 57.25 32.3219C53.5377 37.5721 40.5 55 40.5 55C40.5 55 27.4623 37.5721 23.75 32.3219C21.3879 28.9812 20 24.9027 20 20.5C20 9.17816 29.1782 0 40.5 0C51.8218 0 61 9.17816 61 20.5Z" fill="url(#paint0_linear_354_166)" fill-opacity="0.83"/>
<circle cx="40.75" cy="19.25" r="6.25" stroke="black" stroke-width="3" stroke-linecap="round" stroke-linejoin="round"/>
<path d="M35 47.5L40.5 54.5L46 47.5" stroke="black" stroke-width="3" stroke-linecap="round" stroke-linejoin="round"/>
<defs>
<filter id="filter0_d_354_166" x="2.96" y="-8" width="71.88" height="85.88" filterUnits="userSpaceOnUse" color-interpolation-filters="sRGB">
<feFlood flood-opacity="0" result="BackgroundImageFix"/>
<feColorMatrix in="SourceAlpha" type="matrix" values="0 0 0 0 0 0 0 0 0 0 0 0 0 0 0 0 0 0 127 0" result="hardAlpha"/>
<feOffset dx="-1.6" dy="7.44"/>
<feGaussianBlur stdDeviation="7.72"/>
<feComposite in2="hardAlpha" operator="out"/>
<feColorMatrix type="matrix" values="0 0 0 0 0.14 0 0 0 0 1 0 0 0 0 0 0 0 0 0.68 0"/>
<feBlend mode="normal" in2="BackgroundImageFix" result="effect1_dropShadow_354_166"/>
<feBlend mode="normal" in="SourceGraphic" in2="effect1_dropShadow_354_166" result="shape"/>
</filter>
<linearGradient id="paint0_linear_354_166" x1="35" y1="51.5" x2="49.2818" y2="13.4766" gradientUnits="userSpaceOnUse">
<stop stop-color="white"/>
<stop offset="1" stop-color="white" stop-opacity="0.56"/>
</linearGradient>
</defs>
</svg>
