<svg width="74" height="74" viewBox="0 0 74 74" fill="none" xmlns="http://www.w3.org/2000/svg">
<circle cx="37" cy="37" r="37" fill="white"/>
<g clip-path="url(#clip0_973_214)">
<path d="M49.3812 20C53.5885 20 57 23.3831 57 27.5554V46.4446C57 50.6169 53.5885 54 49.3812 54H24.6188C20.4115 54 17 50.6169 17 46.4446V27.5554C17 23.3831 20.4115 20 24.6188 20H49.3812ZM54.1435 30.7929L40.2759 37.3424C38.2041 38.3214 35.7959 38.3214 33.7241 37.3424L19.8565 30.7929V46.4446C19.8565 48.972 21.8644 51.0519 24.4115 51.1626L24.6188 51.1673H49.3812C51.9314 51.1673 54.0271 49.1761 54.1388 46.6502L54.1435 46.4446V30.7929ZM49.3812 22.8327H24.6188C22.0686 22.8327 19.9729 24.8239 19.8612 27.3498L19.8565 27.655L34.9522 34.7834C36.1675 35.3575 37.571 35.3939 38.8166 34.8846L39.0478 34.7834L54.1435 27.6534V27.5538C54.1435 25.0248 52.1356 22.9466 49.5885 22.8358L49.3812 22.8311V22.8327Z" fill="#285ADA"/>
</g>
<defs>
<clipPath id="clip0_973_214">
<rect width="40" height="34" fill="white" transform="translate(17 20)"/>
</clipPath>
</defs>
</svg>
