
<svg width="55" height="55" viewBox="0 0 55 55" fill="none" xmlns="http://www.w3.org/2000/svg">
<rect width="55" height="55" fill="#1E1E1E"/>
<g id="Group 69">
<rect id="Rectangle 32" x="-1015" y="-3677" width="7829" height="7149" fill="#181818"/>
</g>
<g id="Desktop - 1" clip-path="url(#clip0_235_203)">
<rect width="1440" height="4239" transform="translate(-694 -2383)" fill="#A5C0EE"/>
<rect id="Rectangle 39" x="-682" y="-59" width="1416" height="480" rx="60" fill="url(#paint0_linear_235_203)"/>
<g id="brand-app icon">
<rect id="Rectangle 1" y="1" width="52.8" height="52.8" rx="10.8" fill="black"/>
<g id="blur" opacity="0.19" filter="url(#filter0_f_235_203)">
<circle cx="27.5999" cy="27.4" r="14.7" fill="#00FFFD"/>
</g>
<g id="lightning">
<mask id="mask0_235_203" style="mask-type:alpha" maskUnits="userSpaceOnUse" x="14" y="10" width="24" height="35">
<path id="Union" fill-rule="evenodd" clip-rule="evenodd" d="M31.9647 11.5993C32.06 10.7158 30.9532 10.2433 30.3812 10.9234L14.913 29.3103C14.4205 29.8957 14.8367 30.7897 15.6017 30.7897H21.9773L20.6108 43.4551C20.5155 44.3386 21.6222 44.811 22.1943 44.131L37.6625 25.7441C38.155 25.1587 37.7388 24.2647 36.9738 24.2647H30.5982L31.9647 11.5993Z" fill="#00FFFD"/>
</mask>
<g mask="url(#mask0_235_203)">
<g id="Group 1">
<path id="Polygon 1" d="M30.3812 10.9234C30.9533 10.2433 32.06 10.7158 31.9647 11.5993L29.8942 30.7897H15.6017C14.8367 30.7897 14.4205 29.8957 14.913 29.3103L30.3812 10.9234Z" fill="#00FFFD"/>
<g id="Polygon 2" filter="url(#filter1_d_235_203)">
<path d="M22.1945 44.131C21.6224 44.811 20.5156 44.3386 20.611 43.4551L21.988 30.6923C22.3825 27.0361 25.4689 24.2647 29.1464 24.2647H36.974C37.739 24.2647 38.1552 25.1587 37.6627 25.7441L22.1945 44.131Z" fill="#00FFFD"/>
</g>
</g>
</g>
</g>
</g>
</g>
<defs>
<filter id="filter0_f_235_203" x="0.899902" y="0.699997" width="53.3999" height="53.4" filterUnits="userSpaceOnUse" color-interpolation-filters="sRGB">
<feFlood flood-opacity="0" result="BackgroundImageFix"/>
<feBlend mode="normal" in="SourceGraphic" in2="BackgroundImageFix" result="shape"/>
<feGaussianBlur stdDeviation="6" result="effect1_foregroundBlur_235_203"/>
</filter>
<filter id="filter1_d_235_203" x="7.40522" y="9.26469" width="37.6705" height="40.5897" filterUnits="userSpaceOnUse" color-interpolation-filters="sRGB">
<feFlood flood-opacity="0" result="BackgroundImageFix"/>
<feColorMatrix in="SourceAlpha" type="matrix" values="0 0 0 0 0 0 0 0 0 0 0 0 0 0 0 0 0 0 127 0" result="hardAlpha"/>
<feOffset dx="-3" dy="-4.8"/>
<feGaussianBlur stdDeviation="5.1"/>
<feComposite in2="hardAlpha" operator="out"/>
<feColorMatrix type="matrix" values="0 0 0 0 0.14 0 0 0 0 1 0 0 0 0 0 0 0 0 1 0"/>
<feBlend mode="normal" in2="BackgroundImageFix" result="effect1_dropShadow_235_203"/>
<feBlend mode="normal" in="SourceGraphic" in2="effect1_dropShadow_235_203" result="shape"/>
</filter>
<linearGradient id="paint0_linear_235_203" x1="-636.275" y1="-59.0001" x2="737.126" y2="280.662" gradientUnits="userSpaceOnUse">
<stop stop-color="#12FF7E"/>
<stop offset="1" stop-color="#01FFFC"/>
</linearGradient>
<clipPath id="clip0_235_203">
<rect width="1440" height="4239" fill="white" transform="translate(-694 -2383)"/>
</clipPath>
</defs>
</svg>
