<svg width="95" height="80" viewBox="0 0 95 80" fill="none" xmlns="http://www.w3.org/2000/svg">
<circle cx="35" cy="35" r="35" fill="#00FFFD"/>
<path d="M59 35C59 21.7452 48.2548 11 35 11C21.7452 11 11 21.7452 11 35C11 48.2548 21.7452 59 35 59" stroke="black" stroke-width="3" stroke-linecap="round"/>
<path d="M27.5 34L33.5 38.5L43.5 25.5" stroke="black" stroke-width="3" stroke-linecap="round" stroke-linejoin="round"/>
<path d="M52.5 29L59 35L63.5 27.5" stroke="black" stroke-width="3" stroke-linecap="round" stroke-linejoin="round"/>
<path d="M34 11L34 17" stroke="black" stroke-width="3" stroke-linecap="round"/>
<path d="M11 34H16" stroke="black" stroke-width="3" stroke-linecap="round"/>
<mask id="mask0_354_138" style="mask-type:alpha" maskUnits="userSpaceOnUse" x="0" y="0" width="70" height="70">
<circle cx="35" cy="35" r="35" fill="#00FFFD"/>
</mask>
<g mask="url(#mask0_354_138)">
<g filter="url(#filter0_d_354_138)">
<path d="M86.7149 77.2983C93.0995 68.6576 91.66 59.2855 90.1422 55.6796C65.6074 43.6146 82.6651 28.2444 72.3422 26.1971C62.0193 24.1498 66.4773 42.8258 64.316 44.3032C49.0761 39.9535 47.7798 46.8459 48.422 51.3019C45.2853 54.63 46.1124 70.591 51.1079 73.1497C56.56 76.4667 76.3086 77.5354 86.7149 77.2983Z" fill="#00FFFD"/>
</g>
</g>
<path d="M86.7149 78.2983C93.0995 69.6576 91.66 60.2855 90.1422 56.6796C65.6074 44.6146 82.6651 29.2444 72.3422 27.1971C62.0193 25.1498 66.4773 43.8258 64.316 45.3032C49.0761 40.9535 47.7798 47.8459 48.422 52.3019C45.2853 55.63 46.1124 71.591 51.1079 74.1497C56.56 77.4667 76.3086 78.5354 86.7149 78.2983Z" fill="#00FFFD"/>
<path d="M86.7149 78.2983C93.0995 69.6576 91.66 60.2855 90.1422 56.6796C65.6074 44.6146 82.6651 29.2444 72.3422 27.1971C62.0193 25.1498 66.4773 43.8258 64.316 45.3032C49.0761 40.9535 47.7798 47.8459 48.422 52.3019C45.2853 55.63 46.1124 71.591 51.1079 74.1497C56.56 77.4667 76.3086 78.5354 86.7149 78.2983Z" fill="url(#paint0_linear_354_138)" fill-opacity="0.83"/>
<path d="M64.4736 45.2153C65.5205 45.7865 67.9198 47.34 69.1418 48.9848" stroke="black" stroke-width="3" stroke-linecap="round"/>
<defs>
<filter id="filter0_d_354_138" x="12.4929" y="0.0405316" width="86.628" height="93.0494" filterUnits="userSpaceOnUse" color-interpolation-filters="sRGB">
<feFlood flood-opacity="0" result="BackgroundImageFix"/>
<feColorMatrix in="SourceAlpha" type="matrix" values="0 0 0 0 0 0 0 0 0 0 0 0 0 0 0 0 0 0 127 0" result="hardAlpha"/>
<feOffset dx="-13.2" dy="-5.12"/>
<feGaussianBlur stdDeviation="10.44"/>
<feComposite in2="hardAlpha" operator="out"/>
<feColorMatrix type="matrix" values="0 0 0 0 0.14 0 0 0 0 1 0 0 0 0 0 0 0 0 0.68 0"/>
<feBlend mode="normal" in2="BackgroundImageFix" result="effect1_dropShadow_354_138"/>
<feBlend mode="normal" in="SourceGraphic" in2="effect1_dropShadow_354_138" result="shape"/>
</filter>
<linearGradient id="paint0_linear_354_138" x1="55.9504" y1="41.221" x2="68.6184" y2="64.7107" gradientUnits="userSpaceOnUse">
<stop stop-color="white"/>
<stop offset="1" stop-color="white" stop-opacity="0.56"/>
</linearGradient>
</defs>
</svg>
